<svg xmlns="http://www.w3.org/2000/svg" xmlns:xlink="http://www.w3.org/1999/xlink" width="500" zoomAndPan="magnify" viewBox="0 0 375 374.999991" height="500" preserveAspectRatio="xMidYMid meet" version="1.0"><defs><g/><clipPath id="566b7dd067"><path d="M 375 56.25 L 375 318.75 C 375 333.667969 369.074219 347.976562 358.523438 358.523438 C 347.976562 369.074219 333.667969 375 318.75 375 L 56.25 375 C 25.183594 375 0 349.816406 0 318.75 L 0 56.25 C 0 25.183594 25.183594 0 56.25 0 L 318.75 0 C 333.667969 0 347.976562 5.925781 358.523438 16.476562 C 369.074219 27.023438 375 41.332031 375 56.25 Z M 375 56.25 " clip-rule="nonzero"/></clipPath><clipPath id="0d5a611b0c"><path d="M 0 0 L 375 0 L 375 375 L 0 375 Z M 0 0 " clip-rule="nonzero"/></clipPath><clipPath id="dbdb2558e4"><path d="M 375 56.25 L 375 318.75 C 375 333.667969 369.074219 347.976562 358.523438 358.523438 C 347.976562 369.074219 333.667969 375 318.75 375 L 56.25 375 C 25.183594 375 0 349.816406 0 318.75 L 0 56.25 C 0 25.183594 25.183594 0 56.25 0 L 318.75 0 C 333.667969 0 347.976562 5.925781 358.523438 16.476562 C 369.074219 27.023438 375 41.332031 375 56.25 Z M 375 56.25 " clip-rule="nonzero"/></clipPath><clipPath id="66fbd2d6c6"><rect x="0" width="375" y="0" height="375"/></clipPath><clipPath id="5c764a2077"><path d="M 37.5 58.3125 L 337.5 58.3125 L 337.5 268 L 37.5 268 Z M 37.5 58.3125 " clip-rule="nonzero"/></clipPath></defs><g clip-path="url(#566b7dd067)"><g transform="matrix(1, 0, 0, 1, 0, 0)"><g clip-path="url(#66fbd2d6c6)"><g clip-path="url(#0d5a611b0c)"><g clip-path="url(#dbdb2558e4)"><rect x="-82.5" width="540" fill="#ffffff" height="539.999987" y="-82.499998" fill-opacity="1"/></g></g></g></g></g><g clip-path="url(#5c764a2077)"><path fill="#ea580c" d="M 333.535156 107.703125 L 152.636719 111.640625 L 327.636719 115.453125 L 286.699219 211.941406 L 153.023438 209.824219 C 151.9375 208.566406 150.570312 207.539062 148.972656 206.851562 L 98.164062 65.84375 C 96.742188 61.925781 93.011719 59.078125 88.59375 59.007812 L 88.257812 59.003906 L 49.011719 58.378906 C 48.910156 58.378906 48.761719 58.378906 48.65625 58.378906 C 42.460938 58.480469 37.523438 63.578125 37.621094 69.769531 C 37.71875 75.964844 42.820312 80.90625 49.011719 80.804688 L 81.113281 80.296875 L 133.941406 213.492188 C 133.890625 213.628906 133.835938 213.761719 133.789062 213.90625 L 121.085938 255.800781 L 120.789062 256.773438 C 120.519531 257.679688 120.398438 258.652344 120.453125 259.648438 C 120.714844 264.277344 124.675781 267.816406 129.304688 267.554688 L 284.476562 258.804688 L 142.273438 250.789062 L 153.089844 225.695312 L 290.484375 223.519531 L 290.671875 223.515625 C 292.890625 223.480469 294.972656 222.121094 295.820312 219.925781 L 337.183594 113.121094 L 337.246094 112.964844 C 337.421875 112.511719 337.507812 112.015625 337.496094 111.496094 C 337.453125 109.351562 335.675781 107.65625 333.535156 107.703125 " fill-opacity="1" fill-rule="nonzero"/></g><path fill="#ea580c" d="M 153.914062 269.066406 C 140.785156 269.066406 130.136719 279.714844 130.136719 292.84375 C 130.136719 305.976562 140.785156 316.621094 153.914062 316.621094 C 167.046875 316.621094 177.691406 305.976562 177.691406 292.84375 C 177.691406 279.714844 167.046875 269.066406 153.914062 269.066406 " fill-opacity="1" fill-rule="nonzero"/><path fill="#ea580c" d="M 249.488281 269.066406 C 236.355469 269.066406 225.710938 279.714844 225.710938 292.84375 C 225.710938 305.976562 236.355469 316.621094 249.488281 316.621094 C 262.617188 316.621094 273.265625 305.976562 273.265625 292.84375 C 273.265625 279.714844 262.617188 269.066406 249.488281 269.066406 " fill-opacity="1" fill-rule="nonzero"/><g fill="#16a34a" fill-opacity="1"><g transform="translate(150.896449, 180.000017)"><g><path d="M 12.375 0.546875 C 8.894531 0.546875 6.304688 -0.375 4.609375 -2.21875 C 2.910156 -4.070312 2.003906 -7.007812 1.890625 -11.03125 L 8.78125 -12.0625 C 8.800781 -9.75 9.070312 -8.085938 9.59375 -7.078125 C 10.125 -6.078125 10.914062 -5.578125 11.96875 -5.578125 C 13.320312 -5.578125 14 -6.460938 14 -8.234375 C 14 -9.640625 13.675781 -10.851562 13.03125 -11.875 C 12.382812 -12.894531 11.367188 -13.992188 9.984375 -15.171875 L 6.84375 -17.90625 C 5.28125 -19.226562 4.070312 -20.628906 3.21875 -22.109375 C 2.363281 -23.597656 1.9375 -25.363281 1.9375 -27.40625 C 1.9375 -30.46875 2.84375 -32.820312 4.65625 -34.46875 C 6.46875 -36.113281 8.96875 -36.9375 12.15625 -36.9375 C 15.601562 -36.9375 17.945312 -35.929688 19.1875 -33.921875 C 20.4375 -31.921875 21.101562 -29.476562 21.1875 -26.59375 L 14.265625 -25.734375 C 14.203125 -27.628906 14.023438 -28.988281 13.734375 -29.8125 C 13.453125 -30.632812 12.832031 -31.046875 11.875 -31.046875 C 11.1875 -31.046875 10.65625 -30.753906 10.28125 -30.171875 C 9.90625 -29.585938 9.71875 -28.9375 9.71875 -28.21875 C 9.71875 -26.988281 9.992188 -25.953125 10.546875 -25.109375 C 11.109375 -24.265625 12.003906 -23.304688 13.234375 -22.234375 L 16.25 -19.578125 C 18.039062 -18.046875 19.429688 -16.425781 20.421875 -14.71875 C 21.421875 -13.007812 21.921875 -10.984375 21.921875 -8.640625 C 21.921875 -6.929688 21.519531 -5.378906 20.71875 -3.984375 C 19.925781 -2.585938 18.804688 -1.484375 17.359375 -0.671875 C 15.921875 0.140625 14.257812 0.546875 12.375 0.546875 Z M 12.375 0.546875 "/></g></g></g><g fill="#16a34a" fill-opacity="1"><g transform="translate(174.026422, 180.000017)"><g><path d="M 2.828125 -36.453125 L 10.890625 -36.453125 L 10.890625 -21.6875 L 16.515625 -21.6875 L 16.515625 -36.453125 L 24.609375 -36.453125 L 24.609375 0 L 16.515625 0 L 16.515625 -15.9375 L 10.890625 -15.9375 L 10.890625 0 L 2.828125 0 Z M 2.828125 -36.453125 "/></g></g></g><g fill="#16a34a" fill-opacity="1"><g transform="translate(201.47639, 180.000017)"><g><path d="M 13.140625 0.546875 C 9.210938 0.546875 6.40625 -0.460938 4.71875 -2.484375 C 3.039062 -4.515625 2.203125 -7.507812 2.203125 -11.46875 L 2.203125 -25.015625 C 2.203125 -28.972656 3.039062 -31.945312 4.71875 -33.9375 C 6.40625 -35.9375 9.210938 -36.9375 13.140625 -36.9375 C 17.097656 -36.9375 19.925781 -35.929688 21.625 -33.921875 C 23.320312 -31.921875 24.171875 -28.953125 24.171875 -25.015625 L 24.171875 -11.46875 C 24.171875 -7.507812 23.320312 -4.515625 21.625 -2.484375 C 19.925781 -0.460938 17.097656 0.546875 13.140625 0.546875 Z M 13.140625 -5.171875 C 14.273438 -5.171875 15.023438 -5.550781 15.390625 -6.3125 C 15.753906 -7.082031 15.9375 -8.128906 15.9375 -9.453125 L 15.9375 -27 C 15.9375 -28.351562 15.753906 -29.40625 15.390625 -30.15625 C 15.023438 -30.90625 14.273438 -31.28125 13.140625 -31.28125 C 12.054688 -31.28125 11.332031 -30.894531 10.96875 -30.125 C 10.613281 -29.363281 10.4375 -28.320312 10.4375 -27 L 10.4375 -9.453125 C 10.4375 -8.128906 10.601562 -7.082031 10.9375 -6.3125 C 11.269531 -5.550781 12.003906 -5.171875 13.140625 -5.171875 Z M 13.140625 -5.171875 "/></g></g></g><g fill="#16a34a" fill-opacity="1"><g transform="translate(227.846368, 180.000017)"><g><path d="M 2.703125 -36.453125 L 14.9375 -36.453125 C 18.144531 -36.453125 20.546875 -35.539062 22.140625 -33.71875 C 23.734375 -31.90625 24.53125 -29.289062 24.53125 -25.875 C 24.53125 -21.976562 23.601562 -19.269531 21.75 -17.75 C 19.90625 -16.238281 17.320312 -15.484375 14 -15.484375 L 10.75 -15.484375 L 10.75 0 L 2.703125 0 Z M 13.453125 -21.109375 C 14.859375 -21.109375 15.796875 -21.484375 16.265625 -22.234375 C 16.734375 -22.984375 16.96875 -24.242188 16.96875 -26.015625 C 16.96875 -27.628906 16.738281 -28.828125 16.28125 -29.609375 C 15.832031 -30.390625 14.875 -30.78125 13.40625 -30.78125 L 10.75 -30.78125 L 10.75 -21.109375 Z M 13.453125 -21.109375 "/></g></g></g><g fill="#16a34a" fill-opacity="1"><g transform="translate(253.541339, 180.000017)"><g><path d="M 2.75 -36.453125 L 10.796875 -36.453125 L 10.796875 0 L 2.75 0 Z M 2.75 -36.453125 "/></g></g></g><g fill="#16a34a" fill-opacity="1"><g transform="translate(267.086325, 180.000017)"><g><path d="M 2.703125 -36.453125 L 8.375 -36.453125 L 15.84375 -18.90625 L 15.84375 -36.453125 L 22.5 -36.453125 L 22.5 0 L 17.0625 0 L 9.578125 -18.90625 L 9.578125 0 L 2.703125 0 Z M 2.703125 -36.453125 "/></g></g></g></svg>