<svg xmlns="http://www.w3.org/2000/svg" xmlns:xlink="http://www.w3.org/1999/xlink" width="500" zoomAndPan="magnify" viewBox="0 0 375 374.999991" height="500" preserveAspectRatio="xMidYMid meet" version="1.0"><defs><g/><clipPath id="87b714d021"><path d="M 56.25 0 L 318.75 0 C 333.667969 0 347.976562 5.925781 358.523438 16.476562 C 369.074219 27.023438 375 41.332031 375 56.25 L 375 318.75 C 375 349.816406 349.816406 375 318.75 375 L 56.25 375 C 41.332031 375 27.023438 369.074219 16.476562 358.523438 C 5.925781 347.976562 0 333.667969 0 318.75 L 0 56.25 C 0 25.183594 25.183594 0 56.25 0 Z M 56.25 0 " clip-rule="nonzero"/></clipPath><clipPath id="71d69f2c97"><path d="M 0 0 L 375 0 L 375 375 L 0 375 Z M 0 0 " clip-rule="nonzero"/></clipPath><clipPath id="774702a84f"><path d="M 56.25 0 L 318.75 0 C 333.667969 0 347.976562 5.925781 358.523438 16.476562 C 369.074219 27.023438 375 41.332031 375 56.25 L 375 318.75 C 375 349.816406 349.816406 375 318.75 375 L 56.25 375 C 41.332031 375 27.023438 369.074219 16.476562 358.523438 C 5.925781 347.976562 0 333.667969 0 318.75 L 0 56.25 C 0 25.183594 25.183594 0 56.25 0 Z M 56.25 0 " clip-rule="nonzero"/></clipPath><clipPath id="d8b418ab4d"><rect x="0" width="375" y="0" height="375"/></clipPath></defs><g clip-path="url(#87b714d021)"><g transform="matrix(1, 0, 0, 1, 0, 0)"><g clip-path="url(#d8b418ab4d)"><g clip-path="url(#71d69f2c97)"><g clip-path="url(#774702a84f)"><rect x="-82.5" width="540" fill="#ff914d" height="539.999987" y="-82.499998" fill-opacity="1"/></g></g></g></g></g><g fill="#16a34a" fill-opacity="1"><g transform="translate(57.925782, 149.99999)"><g><path d="M 41.25 1.796875 C 29.644531 1.796875 21.019531 -1.273438 15.375 -7.421875 C 9.726562 -13.578125 6.703125 -23.351562 6.296875 -36.75 L 29.25 -40.203125 C 29.351562 -32.503906 30.28125 -26.976562 32.03125 -23.625 C 33.78125 -20.269531 36.40625 -18.59375 39.90625 -18.59375 C 44.40625 -18.59375 46.65625 -21.546875 46.65625 -27.453125 C 46.65625 -32.148438 45.578125 -36.195312 43.421875 -39.59375 C 41.273438 -43 37.898438 -46.648438 33.296875 -50.546875 L 22.796875 -59.703125 C 17.597656 -64.097656 13.570312 -68.769531 10.71875 -73.71875 C 7.875 -78.675781 6.453125 -84.550781 6.453125 -91.34375 C 6.453125 -101.550781 9.472656 -109.40625 15.515625 -114.90625 C 21.566406 -120.40625 29.894531 -123.15625 40.5 -123.15625 C 52 -123.15625 59.820312 -119.800781 63.96875 -113.09375 C 68.125 -106.394531 70.351562 -98.25 70.65625 -88.65625 L 47.546875 -85.796875 C 47.347656 -92.097656 46.773438 -96.625 45.828125 -99.375 C 44.878906 -102.125 42.800781 -103.5 39.59375 -103.5 C 37.300781 -103.5 35.53125 -102.523438 34.28125 -100.578125 C 33.03125 -98.628906 32.40625 -96.453125 32.40625 -94.046875 C 32.40625 -89.953125 33.328125 -86.503906 35.171875 -83.703125 C 37.023438 -80.898438 40 -77.695312 44.09375 -74.09375 L 54.15625 -65.25 C 60.15625 -60.144531 64.800781 -54.742188 68.09375 -49.046875 C 71.394531 -43.347656 73.046875 -36.597656 73.046875 -28.796875 C 73.046875 -23.097656 71.71875 -17.921875 69.0625 -13.265625 C 66.414062 -8.617188 62.691406 -4.945312 57.890625 -2.25 C 53.097656 0.445312 47.550781 1.796875 41.25 1.796875 Z M 41.25 1.796875 "/></g></g></g><g fill="#16a34a" fill-opacity="1"><g transform="translate(135.02579, 149.99999)"><g><path d="M 9.453125 -121.5 L 36.296875 -121.5 L 36.296875 -72.296875 L 55.046875 -72.296875 L 55.046875 -121.5 L 82.046875 -121.5 L 82.046875 0 L 55.046875 0 L 55.046875 -53.09375 L 36.296875 -53.09375 L 36.296875 0 L 9.453125 0 Z M 9.453125 -121.5 "/></g></g></g><g fill="#16a34a" fill-opacity="1"><g transform="translate(226.525808, 149.99999)"><g><path d="M 43.796875 1.796875 C 30.703125 1.796875 21.351562 -1.578125 15.75 -8.328125 C 10.144531 -15.078125 7.34375 -25.050781 7.34375 -38.25 L 7.34375 -83.40625 C 7.34375 -96.601562 10.144531 -106.523438 15.75 -113.171875 C 21.351562 -119.828125 30.703125 -123.15625 43.796875 -123.15625 C 56.992188 -123.15625 66.414062 -119.800781 72.0625 -113.09375 C 77.71875 -106.394531 80.546875 -96.5 80.546875 -83.40625 L 80.546875 -38.25 C 80.546875 -25.050781 77.71875 -15.078125 72.0625 -8.328125 C 66.414062 -1.578125 56.992188 1.796875 43.796875 1.796875 Z M 43.796875 -17.25 C 47.597656 -17.25 50.097656 -18.523438 51.296875 -21.078125 C 52.492188 -23.628906 53.09375 -27.101562 53.09375 -31.5 L 53.09375 -90 C 53.09375 -94.5 52.492188 -98 51.296875 -100.5 C 50.097656 -103 47.597656 -104.25 43.796875 -104.25 C 40.203125 -104.25 37.800781 -102.972656 36.59375 -100.421875 C 35.394531 -97.867188 34.796875 -94.394531 34.796875 -90 L 34.796875 -31.5 C 34.796875 -27.101562 35.34375 -23.628906 36.4375 -21.078125 C 37.539062 -18.523438 39.992188 -17.25 43.796875 -17.25 Z M 43.796875 -17.25 "/></g></g></g><g fill="#16a34a" fill-opacity="1"><g transform="translate(78.703124, 329.999978)"><g><path d="M 9 -121.5 L 49.796875 -121.5 C 60.492188 -121.5 68.492188 -118.472656 73.796875 -112.421875 C 79.097656 -106.367188 81.75 -97.644531 81.75 -86.25 C 81.75 -73.25 78.671875 -64.222656 72.515625 -59.171875 C 66.367188 -54.117188 57.75 -51.59375 46.65625 -51.59375 L 35.84375 -51.59375 L 35.84375 0 L 9 0 Z M 44.84375 -70.34375 C 49.550781 -70.34375 52.675781 -71.59375 54.21875 -74.09375 C 55.769531 -76.59375 56.546875 -80.796875 56.546875 -86.703125 C 56.546875 -92.097656 55.796875 -96.09375 54.296875 -98.6875 C 52.796875 -101.289062 49.597656 -102.59375 44.703125 -102.59375 L 35.84375 -102.59375 L 35.84375 -70.34375 Z M 44.84375 -70.34375 "/></g></g></g><g fill="#16a34a" fill-opacity="1"><g transform="translate(164.353139, 329.999978)"><g><path d="M 9.15625 -121.5 L 36 -121.5 L 36 0 L 9.15625 0 Z M 9.15625 -121.5 "/></g></g></g><g fill="#16a34a" fill-opacity="1"><g transform="translate(209.503145, 329.999978)"><g><path d="M 9 -121.5 L 27.90625 -121.5 L 52.796875 -63 L 52.796875 -121.5 L 75 -121.5 L 75 0 L 56.84375 0 L 31.953125 -63 L 31.953125 0 L 9 0 Z M 9 -121.5 "/></g></g></g></svg>